Simulation
nRows=19
nColumns=15
endheader
time  TH_x TH_y TH_z SC_y  SC_z  SC_x  AC_y  AC_z  AC_x  GH_y  GH_z  GH_yy  EL_x  PS_y
4.133333333333333  0.000000  0.000000  0.000000  -21.94736146739127  5.241865720463716  19.349169949529458  59.65789915542181  9.741088477167239  2.118786235861612  50.22100544961995  57.35855647423261  -51.55844739367241  11.275026986877437  120.000000
4.173856209150326  0.000000  0.000000  0.000000  -21.94953652460186  5.007544120014121  19.10475706961958  59.90936593763111  9.514321216541855  1.8133805950426798  51.14215076463604  57.23018010494791  -52.614666158762034  10.92134025795329  120.000000
4.2143790849673195  0.000000  0.000000  0.000000  -21.993233772532847  4.777023946390205  18.871896448236924  60.18505863747869  9.30493904100971  1.552997877102126  52.11879587935784  57.12633398059102  -53.63801651671152  10.58414935996772  120.000000
4.254901960784313  0.000000  0.000000  0.000000  -22.07889368350867  4.554182904669551  18.662475802523225  60.483741885876476  9.117768151042544  1.342038746469951  53.13619713988471  57.04916056930705  -54.61518490142314  10.271833888326702  120.000000
4.295424836601307  0.000000  0.000000  0.000000  -22.20172679231003  4.343508350199346  18.48551812219488  60.80243452007165  8.954108031873567  1.1820474905156861  54.17822142188726  56.99941089674469  -55.538243934877094  9.990835091413414  120.000000
4.3359477124183  0.000000  0.000000  0.000000  -22.352463534532063  4.1494790188366775  18.34673818375109  61.13618548935084  8.811727362971006  1.0716502732753141  55.22750536754845  56.97663462443354  -56.403754297617084  9.745788059841669  120.000000
4.376470588235294  0.000000  0.000000  0.000000  -22.519064414976846  3.975913212703792  18.248937705068265  61.478256307994066  8.685766116417966  1.0067285757695017  56.26593248796653  56.97895229475547  -57.21084685960237  9.539812918638653  120.000000
4.416993464052287  0.000000  0.000000  0.000000  -22.688864773649048  3.8254077435431113  18.192925069379964  61.82069102460478  8.570008069732317  0.9807660596857357  57.275366354358994  57.00262422379852  -57.95902110486352  9.37532490233798  120.000000
4.45751633986928  0.000000  0.000000  0.000000  -22.850475181837236  3.699013167508192  18.1782939867163  62.1550240889828  8.457967889880157  0.9853067678254018  58.23864834145658  57.04207473025465  -58.64663780422605  9.254900998956792  120.000000
4.498039215686274  0.000000  0.000000  0.000000  -22.994938820613488  3.5963876109037405  18.203768996012315  62.47298353884704  8.343742306158767  1.0108921894657306  59.14067175944954  57.09032624207948  -59.270601569718096  9.18124061253064  120.000000
4.538562091503268  0.000000  0.000000  0.000000  -23.116211186463335  3.516141687372929  18.26744899476842  62.767328066449046  8.222638019934493  1.048119356027145  59.969368883443785  57.139777799931984  -59.82705261147915  9.156131055448423  120.000000
4.579084967320261  0.000000  0.000000  0.000000  -23.211449112000874  3.4560000052940962  18.367121465302734  63.03279803215195  8.091548568324344  1.088514729210355  60.71670226918917  57.183261138568575  -60.312658884147346  9.179082565974769  120.000000
4.6196078431372545  0.000000  0.000000  0.000000  -23.280989117497125  3.413024002629334  18.500405498406707  63.26674791887573  7.949014416714842  1.1252309541580108  61.37936164970172  57.21522456413925  -60.72612380032548  9.246206407927817  120.000000
4.660130718954248  0.000000  0.000000  0.000000  -23.327811672130945  3.384011351783944  18.6646725177244  63.46915936844526  7.795110163196499  1.1535078949799038  61.958742607385176  57.232583653108826  -61.06943894644051  9.349859698498946  120.000000
4.700653594771241  0.000000  0.000000  0.000000  -23.3567960618551  3.3658627477391008  18.85682426567508  63.64215717285139  7.631181008144414  1.1706905688142248  62.460090809513446  57.23509314001999  -61.348557503632584  9.479443570013553  120.000000
4.741176470588234  0.000000  0.000000  0.000000  -23.374033266063687  3.355803988898799  19.073117713697865  63.78928062091401  7.459518651744298  1.175896622116474  62.89120990444161  57.22521778702637  -61.573219558942675  9.622758649541886  120.000000
4.781699346405228  0.000000  0.000000  0.000000  -23.38613592223402  3.351479298351349  19.309127713583518  63.91475334280442  7.283048931801639  1.1695523931479856  63.261081008576404  57.20756543153747  -61.75602763560425  9.76715422156236  120.000000
4.822222222222222  0.000000  0.000000  0.000000  -23.399476902119357  3.3509492360211937  19.559828822296893  64.02287833650905  7.105057879281715  1.152953237426171  63.57855570003739  57.187904037340196  -61.91088599899272  9.900379833253782  120.000000
4.862745098039215  0.000000  0.000000  0.000000  -23.41932939158071  3.352659005592593  19.81968985616951  64.11750159114862  6.928942429934567  1.127859942497786  63.8511257791425  57.171789152002994  -62.05094076294664  10.011620006444366  120.000000
